<mxfile host="app.diagrams.net" modified="2023-06-15T18:17:28.166Z" agent="Mozilla/5.0 (Windows NT 10.0; Win64; x64) AppleWebKit/537.36 (KHTML, like Gecko) Chrome/114.0.0.0 Safari/537.36 Edg/114.0.1823.43" etag="SGJc4EwF1m4eCqXcgrsy" version="21.4.0" type="google">
  <diagram name="PÃ¡gina-1" id="jf_WmNtENscUMTRUXxcu">
    <mxGraphModel grid="1" page="1" gridSize="10" guides="1" tooltips="1" connect="1" arrows="1" fold="1" pageScale="1" pageWidth="827" pageHeight="1169" math="0" shadow="0">
      <root>
        <mxCell id="0" />
        <mxCell id="1" parent="0" />
        <mxCell id="Lju4dMvoBP7dW9GW1Jxo-1" value="tb_clientes" style="rounded=0;whiteSpace=wrap;html=1;" vertex="1" parent="1">
          <mxGeometry x="180" y="375" width="120" height="60" as="geometry" />
        </mxCell>
        <mxCell id="Lju4dMvoBP7dW9GW1Jxo-2" value="tb_pedidos" style="rounded=0;whiteSpace=wrap;html=1;" vertex="1" parent="1">
          <mxGeometry x="180" y="540" width="120" height="60" as="geometry" />
        </mxCell>
        <mxCell id="Lju4dMvoBP7dW9GW1Jxo-3" value="tb_pedidos_mangas" style="rounded=0;whiteSpace=wrap;html=1;" vertex="1" parent="1">
          <mxGeometry x="370" y="660" width="120" height="60" as="geometry" />
        </mxCell>
        <mxCell id="Lju4dMvoBP7dW9GW1Jxo-4" value="tb_mangas" style="rounded=0;whiteSpace=wrap;html=1;" vertex="1" parent="1">
          <mxGeometry x="550" y="508" width="126" height="70" as="geometry" />
        </mxCell>
        <mxCell id="Lju4dMvoBP7dW9GW1Jxo-5" value="tb_autores_mangas" style="rounded=0;whiteSpace=wrap;html=1;" vertex="1" parent="1">
          <mxGeometry x="540" y="355" width="120" height="60" as="geometry" />
        </mxCell>
        <mxCell id="Lju4dMvoBP7dW9GW1Jxo-6" value="tb_autores" style="rounded=0;whiteSpace=wrap;html=1;" vertex="1" parent="1">
          <mxGeometry x="520" y="220" width="120" height="60" as="geometry" />
        </mxCell>
        <mxCell id="Lju4dMvoBP7dW9GW1Jxo-7" value="tb_editoras" style="rounded=0;whiteSpace=wrap;html=1;" vertex="1" parent="1">
          <mxGeometry x="790" y="650" width="120" height="60" as="geometry" />
        </mxCell>
        <mxCell id="mJ2vnAxSnReqpfH-Lu-k-24" style="edgeStyle=orthogonalEdgeStyle;rounded=0;orthogonalLoop=1;jettySize=auto;html=1;entryX=0.5;entryY=0;entryDx=0;entryDy=0;endArrow=ERoneToMany;endFill=0;startArrow=ERmandOne;startFill=0;" edge="1" parent="1" source="Lju4dMvoBP7dW9GW1Jxo-9" target="mJ2vnAxSnReqpfH-Lu-k-18">
          <mxGeometry relative="1" as="geometry">
            <mxPoint x="990" y="350" as="targetPoint" />
            <Array as="points">
              <mxPoint x="830" y="300" />
              <mxPoint x="855" y="300" />
            </Array>
          </mxGeometry>
        </mxCell>
        <mxCell id="Lju4dMvoBP7dW9GW1Jxo-9" value="tb_generos" style="rounded=0;whiteSpace=wrap;html=1;" vertex="1" parent="1">
          <mxGeometry x="770" y="215" width="120" height="60" as="geometry" />
        </mxCell>
        <mxCell id="Lju4dMvoBP7dW9GW1Jxo-18" style="edgeStyle=orthogonalEdgeStyle;rounded=0;orthogonalLoop=1;jettySize=auto;html=1;exitX=0;exitY=0.5;exitDx=0;exitDy=0;endArrow=ERmandOne;endFill=0;startArrow=ERoneToMany;startFill=0;" edge="1" parent="1" source="Lju4dMvoBP7dW9GW1Jxo-3" target="Lju4dMvoBP7dW9GW1Jxo-2">
          <mxGeometry relative="1" as="geometry">
            <mxPoint x="310" y="655" as="sourcePoint" />
            <Array as="points">
              <mxPoint x="240" y="690" />
            </Array>
          </mxGeometry>
        </mxCell>
        <mxCell id="Lju4dMvoBP7dW9GW1Jxo-20" style="edgeStyle=orthogonalEdgeStyle;rounded=0;orthogonalLoop=1;jettySize=auto;html=1;endArrow=ERoneToMany;endFill=0;entryX=0.687;entryY=0.006;entryDx=0;entryDy=0;entryPerimeter=0;exitX=0.5;exitY=1;exitDx=0;exitDy=0;startArrow=ERmandOne;startFill=0;" edge="1" parent="1" source="Lju4dMvoBP7dW9GW1Jxo-4" target="Lju4dMvoBP7dW9GW1Jxo-3">
          <mxGeometry relative="1" as="geometry">
            <mxPoint x="634" y="640" as="sourcePoint" />
          </mxGeometry>
        </mxCell>
        <mxCell id="Lju4dMvoBP7dW9GW1Jxo-26" style="edgeStyle=orthogonalEdgeStyle;rounded=0;orthogonalLoop=1;jettySize=auto;html=1;exitX=0.5;exitY=1;exitDx=0;exitDy=0;endArrow=ERmandOne;endFill=0;startArrow=ERoneToMany;startFill=0;" edge="1" parent="1" source="Lju4dMvoBP7dW9GW1Jxo-5" target="Lju4dMvoBP7dW9GW1Jxo-4">
          <mxGeometry relative="1" as="geometry">
            <mxPoint x="640" y="450" as="sourcePoint" />
          </mxGeometry>
        </mxCell>
        <mxCell id="Lju4dMvoBP7dW9GW1Jxo-35" style="edgeStyle=orthogonalEdgeStyle;rounded=0;orthogonalLoop=1;jettySize=auto;html=1;endArrow=ERmandOne;endFill=0;startArrow=ERoneToMany;startFill=0;" edge="1" parent="1" source="Lju4dMvoBP7dW9GW1Jxo-5" target="Lju4dMvoBP7dW9GW1Jxo-6">
          <mxGeometry relative="1" as="geometry">
            <mxPoint x="625" y="290" as="sourcePoint" />
          </mxGeometry>
        </mxCell>
        <mxCell id="Lju4dMvoBP7dW9GW1Jxo-37" style="edgeStyle=orthogonalEdgeStyle;rounded=0;orthogonalLoop=1;jettySize=auto;html=1;exitX=0.5;exitY=0;exitDx=0;exitDy=0;endArrow=ERmandOne;endFill=0;startArrow=ERoneToMany;startFill=0;" edge="1" parent="1" source="Lju4dMvoBP7dW9GW1Jxo-2" target="Lju4dMvoBP7dW9GW1Jxo-1">
          <mxGeometry relative="1" as="geometry">
            <mxPoint x="290" y="425" as="sourcePoint" />
            <Array as="points">
              <mxPoint x="240" y="395" />
              <mxPoint x="210" y="395" />
            </Array>
          </mxGeometry>
        </mxCell>
        <mxCell id="Lju4dMvoBP7dW9GW1Jxo-29" style="edgeStyle=orthogonalEdgeStyle;rounded=0;orthogonalLoop=1;jettySize=auto;html=1;endArrow=ERmandOne;endFill=0;exitX=1;exitY=0.5;exitDx=0;exitDy=0;startArrow=ERoneToMany;startFill=0;entryX=0.5;entryY=0;entryDx=0;entryDy=0;" edge="1" parent="1" source="Lju4dMvoBP7dW9GW1Jxo-4" target="Lju4dMvoBP7dW9GW1Jxo-7">
          <mxGeometry relative="1" as="geometry">
            <mxPoint x="780" y="560" as="sourcePoint" />
            <Array as="points">
              <mxPoint x="840" y="543" />
              <mxPoint x="840" y="610" />
              <mxPoint x="850" y="610" />
            </Array>
            <mxPoint x="870" y="610" as="targetPoint" />
          </mxGeometry>
        </mxCell>
        <mxCell id="mJ2vnAxSnReqpfH-Lu-k-21" value="" style="edgeStyle=orthogonalEdgeStyle;rounded=0;orthogonalLoop=1;jettySize=auto;html=1;endArrow=ERoneToMany;endFill=0;exitX=1;exitY=0.25;exitDx=0;exitDy=0;startArrow=ERmandOne;startFill=0;" edge="1" parent="1" source="Lju4dMvoBP7dW9GW1Jxo-4" target="mJ2vnAxSnReqpfH-Lu-k-18">
          <mxGeometry relative="1" as="geometry">
            <mxPoint x="920.0588235294117" y="485.05882352941217" as="sourcePoint" />
          </mxGeometry>
        </mxCell>
        <mxCell id="Lju4dMvoBP7dW9GW1Jxo-45" value="" style="endArrow=oval;html=1;rounded=0;exitX=1;exitY=0;exitDx=0;exitDy=0;endFill=0;entryX=0.021;entryY=0.463;entryDx=0;entryDy=0;entryPerimeter=0;" edge="1" parent="1" source="Lju4dMvoBP7dW9GW1Jxo-1" target="mJ2vnAxSnReqpfH-Lu-k-31">
          <mxGeometry width="50" height="50" relative="1" as="geometry">
            <mxPoint x="540" y="555" as="sourcePoint" />
            <mxPoint x="370" y="355" as="targetPoint" />
          </mxGeometry>
        </mxCell>
        <mxCell id="Lju4dMvoBP7dW9GW1Jxo-46" value="" style="endArrow=oval;html=1;rounded=0;exitX=1;exitY=0.25;exitDx=0;exitDy=0;endFill=0;" edge="1" parent="1" source="Lju4dMvoBP7dW9GW1Jxo-1" target="mJ2vnAxSnReqpfH-Lu-k-33">
          <mxGeometry width="50" height="50" relative="1" as="geometry">
            <mxPoint x="330" y="385" as="sourcePoint" />
            <mxPoint x="370" y="390" as="targetPoint" />
          </mxGeometry>
        </mxCell>
        <mxCell id="Lju4dMvoBP7dW9GW1Jxo-47" value="" style="endArrow=oval;html=1;rounded=0;exitX=1;exitY=0.5;exitDx=0;exitDy=0;endFill=0;" edge="1" parent="1" source="Lju4dMvoBP7dW9GW1Jxo-1" target="mJ2vnAxSnReqpfH-Lu-k-34">
          <mxGeometry width="50" height="50" relative="1" as="geometry">
            <mxPoint x="340" y="395" as="sourcePoint" />
            <mxPoint x="370" y="405" as="targetPoint" />
          </mxGeometry>
        </mxCell>
        <mxCell id="Lju4dMvoBP7dW9GW1Jxo-48" value="" style="endArrow=oval;html=1;rounded=0;exitX=1;exitY=0.75;exitDx=0;exitDy=0;endFill=0;entryX=-0.014;entryY=0.512;entryDx=0;entryDy=0;entryPerimeter=0;" edge="1" parent="1" source="Lju4dMvoBP7dW9GW1Jxo-1" target="mJ2vnAxSnReqpfH-Lu-k-35">
          <mxGeometry width="50" height="50" relative="1" as="geometry">
            <mxPoint x="350" y="405" as="sourcePoint" />
            <mxPoint x="410" y="435" as="targetPoint" />
          </mxGeometry>
        </mxCell>
        <mxCell id="Lju4dMvoBP7dW9GW1Jxo-50" value="" style="endArrow=oval;html=1;rounded=0;exitX=0.75;exitY=0;exitDx=0;exitDy=0;endFill=1;entryX=0.006;entryY=0.725;entryDx=0;entryDy=0;entryPerimeter=0;" edge="1" parent="1" source="Lju4dMvoBP7dW9GW1Jxo-1" target="mJ2vnAxSnReqpfH-Lu-k-30">
          <mxGeometry width="50" height="50" relative="1" as="geometry">
            <mxPoint x="370" y="425" as="sourcePoint" />
            <mxPoint x="370" y="335" as="targetPoint" />
          </mxGeometry>
        </mxCell>
        <mxCell id="Lju4dMvoBP7dW9GW1Jxo-52" value="" style="endArrow=oval;html=1;rounded=0;exitX=1;exitY=0;exitDx=0;exitDy=0;endFill=1;" edge="1" parent="1" source="Lju4dMvoBP7dW9GW1Jxo-2" target="mJ2vnAxSnReqpfH-Lu-k-37">
          <mxGeometry width="50" height="50" relative="1" as="geometry">
            <mxPoint x="330" y="365" as="sourcePoint" />
            <mxPoint x="350" y="540" as="targetPoint" />
          </mxGeometry>
        </mxCell>
        <mxCell id="Lju4dMvoBP7dW9GW1Jxo-53" value="" style="endArrow=oval;html=1;rounded=0;exitX=1;exitY=0.25;exitDx=0;exitDy=0;endFill=0;entryX=-0.014;entryY=0.453;entryDx=0;entryDy=0;entryPerimeter=0;" edge="1" parent="1" source="Lju4dMvoBP7dW9GW1Jxo-2" target="mJ2vnAxSnReqpfH-Lu-k-38">
          <mxGeometry width="50" height="50" relative="1" as="geometry">
            <mxPoint x="310" y="550" as="sourcePoint" />
            <mxPoint x="350" y="555" as="targetPoint" />
          </mxGeometry>
        </mxCell>
        <mxCell id="Lju4dMvoBP7dW9GW1Jxo-54" value="" style="endArrow=oval;html=1;rounded=0;exitX=1;exitY=0.5;exitDx=0;exitDy=0;endFill=0;entryX=0.013;entryY=0.424;entryDx=0;entryDy=0;entryPerimeter=0;" edge="1" parent="1" source="Lju4dMvoBP7dW9GW1Jxo-2" target="mJ2vnAxSnReqpfH-Lu-k-39">
          <mxGeometry width="50" height="50" relative="1" as="geometry">
            <mxPoint x="320" y="560" as="sourcePoint" />
            <mxPoint x="360" y="570" as="targetPoint" />
          </mxGeometry>
        </mxCell>
        <mxCell id="Lju4dMvoBP7dW9GW1Jxo-56" value="" style="endArrow=oval;html=1;rounded=0;exitX=1.009;exitY=0.14;exitDx=0;exitDy=0;endFill=0;entryX=0.037;entryY=0.433;entryDx=0;entryDy=0;entryPerimeter=0;exitPerimeter=0;" edge="1" parent="1" source="Lju4dMvoBP7dW9GW1Jxo-1" target="mJ2vnAxSnReqpfH-Lu-k-32">
          <mxGeometry width="50" height="50" relative="1" as="geometry">
            <mxPoint x="330" y="445" as="sourcePoint" />
            <mxPoint x="370" y="375" as="targetPoint" />
          </mxGeometry>
        </mxCell>
        <mxCell id="Lju4dMvoBP7dW9GW1Jxo-57" value="" style="endArrow=oval;html=1;rounded=0;exitX=1;exitY=0.25;exitDx=0;exitDy=0;endFill=0;entryX=0.005;entryY=0.463;entryDx=0;entryDy=0;entryPerimeter=0;" edge="1" parent="1" source="Lju4dMvoBP7dW9GW1Jxo-3" target="mJ2vnAxSnReqpfH-Lu-k-41">
          <mxGeometry width="50" height="50" relative="1" as="geometry">
            <mxPoint x="310" y="445" as="sourcePoint" />
            <mxPoint x="540" y="670" as="targetPoint" />
          </mxGeometry>
        </mxCell>
        <mxCell id="Lju4dMvoBP7dW9GW1Jxo-58" value="" style="endArrow=oval;html=1;rounded=0;exitX=1;exitY=0.5;exitDx=0;exitDy=0;endFill=0;entryX=-0.008;entryY=0.61;entryDx=0;entryDy=0;entryPerimeter=0;" edge="1" parent="1" source="Lju4dMvoBP7dW9GW1Jxo-3" target="mJ2vnAxSnReqpfH-Lu-k-42">
          <mxGeometry width="50" height="50" relative="1" as="geometry">
            <mxPoint x="320" y="455" as="sourcePoint" />
            <mxPoint x="540" y="690" as="targetPoint" />
            <Array as="points">
              <mxPoint x="520" y="693" />
            </Array>
          </mxGeometry>
        </mxCell>
        <mxCell id="Lju4dMvoBP7dW9GW1Jxo-59" value="" style="endArrow=oval;html=1;rounded=0;exitX=1;exitY=0.75;exitDx=0;exitDy=0;endFill=0;entryX=-0.019;entryY=0.51;entryDx=0;entryDy=0;entryPerimeter=0;" edge="1" parent="1" source="Lju4dMvoBP7dW9GW1Jxo-4" target="mJ2vnAxSnReqpfH-Lu-k-48">
          <mxGeometry width="50" height="50" relative="1" as="geometry">
            <mxPoint x="400" y="550" as="sourcePoint" />
            <mxPoint x="720" y="565" as="targetPoint" />
          </mxGeometry>
        </mxCell>
        <mxCell id="Lju4dMvoBP7dW9GW1Jxo-60" value="" style="endArrow=oval;html=1;rounded=0;exitX=0.75;exitY=0;exitDx=0;exitDy=0;endFill=1;entryX=-0.018;entryY=0.588;entryDx=0;entryDy=0;entryPerimeter=0;" edge="1" parent="1" source="Lju4dMvoBP7dW9GW1Jxo-4" target="mJ2vnAxSnReqpfH-Lu-k-45">
          <mxGeometry width="50" height="50" relative="1" as="geometry">
            <mxPoint x="590" y="790" as="sourcePoint" />
            <mxPoint x="700" y="490" as="targetPoint" />
          </mxGeometry>
        </mxCell>
        <mxCell id="Lju4dMvoBP7dW9GW1Jxo-61" value="" style="endArrow=oval;html=1;rounded=0;exitX=1;exitY=0;exitDx=0;exitDy=0;endFill=0;entryX=-0.001;entryY=0.529;entryDx=0;entryDy=0;entryPerimeter=0;" edge="1" parent="1" source="Lju4dMvoBP7dW9GW1Jxo-4" target="mJ2vnAxSnReqpfH-Lu-k-46">
          <mxGeometry width="50" height="50" relative="1" as="geometry">
            <mxPoint x="704" y="575" as="sourcePoint" />
            <mxPoint x="700" y="490" as="targetPoint" />
          </mxGeometry>
        </mxCell>
        <mxCell id="mJ2vnAxSnReqpfH-Lu-k-1" value="" style="endArrow=oval;html=1;rounded=0;exitX=1;exitY=0.25;exitDx=0;exitDy=0;endFill=0;entryX=-0.013;entryY=0.708;entryDx=0;entryDy=0;entryPerimeter=0;" edge="1" parent="1" source="Lju4dMvoBP7dW9GW1Jxo-4" target="mJ2vnAxSnReqpfH-Lu-k-47">
          <mxGeometry width="50" height="50" relative="1" as="geometry">
            <mxPoint x="704" y="530" as="sourcePoint" />
            <mxPoint x="720" y="520" as="targetPoint" />
          </mxGeometry>
        </mxCell>
        <mxCell id="mJ2vnAxSnReqpfH-Lu-k-3" value="" style="endArrow=oval;html=1;rounded=0;exitX=1;exitY=0.25;exitDx=0;exitDy=0;endFill=1;entryX=-0.047;entryY=0.639;entryDx=0;entryDy=0;entryPerimeter=0;" edge="1" parent="1" source="Lju4dMvoBP7dW9GW1Jxo-5" target="mJ2vnAxSnReqpfH-Lu-k-50">
          <mxGeometry width="50" height="50" relative="1" as="geometry">
            <mxPoint x="634" y="595" as="sourcePoint" />
            <mxPoint x="690" y="355" as="targetPoint" />
          </mxGeometry>
        </mxCell>
        <mxCell id="mJ2vnAxSnReqpfH-Lu-k-4" value="" style="endArrow=oval;html=1;rounded=0;exitX=1;exitY=0.5;exitDx=0;exitDy=0;endFill=1;entryX=-0.001;entryY=0.531;entryDx=0;entryDy=0;entryPerimeter=0;" edge="1" parent="1" source="Lju4dMvoBP7dW9GW1Jxo-5" target="mJ2vnAxSnReqpfH-Lu-k-51">
          <mxGeometry width="50" height="50" relative="1" as="geometry">
            <mxPoint x="644" y="605" as="sourcePoint" />
            <mxPoint x="690" y="385" as="targetPoint" />
          </mxGeometry>
        </mxCell>
        <mxCell id="mJ2vnAxSnReqpfH-Lu-k-5" value="" style="endArrow=oval;html=1;rounded=0;exitX=1;exitY=0.25;exitDx=0;exitDy=0;endFill=1;entryX=-0.001;entryY=0.596;entryDx=0;entryDy=0;entryPerimeter=0;" edge="1" parent="1" source="Lju4dMvoBP7dW9GW1Jxo-6" target="mJ2vnAxSnReqpfH-Lu-k-53">
          <mxGeometry width="50" height="50" relative="1" as="geometry">
            <mxPoint x="644" y="700" as="sourcePoint" />
            <mxPoint x="686.3200000000002" y="226.23000000000002" as="targetPoint" />
          </mxGeometry>
        </mxCell>
        <mxCell id="mJ2vnAxSnReqpfH-Lu-k-6" value="" style="endArrow=oval;html=1;rounded=0;exitX=1;exitY=0.5;exitDx=0;exitDy=0;endFill=0;entryX=-0.027;entryY=0.571;entryDx=0;entryDy=0;entryPerimeter=0;" edge="1" parent="1" source="Lju4dMvoBP7dW9GW1Jxo-6" target="mJ2vnAxSnReqpfH-Lu-k-54">
          <mxGeometry width="50" height="50" relative="1" as="geometry">
            <mxPoint x="654" y="680" as="sourcePoint" />
            <mxPoint x="680" y="250" as="targetPoint" />
          </mxGeometry>
        </mxCell>
        <mxCell id="mJ2vnAxSnReqpfH-Lu-k-7" value="" style="endArrow=oval;html=1;rounded=0;exitX=1;exitY=0.5;exitDx=0;exitDy=0;endFill=0;entryX=-0.001;entryY=0.522;entryDx=0;entryDy=0;entryPerimeter=0;" edge="1" parent="1" source="Lju4dMvoBP7dW9GW1Jxo-9" target="mJ2vnAxSnReqpfH-Lu-k-56">
          <mxGeometry width="50" height="50" relative="1" as="geometry">
            <mxPoint x="704" y="530" as="sourcePoint" />
            <mxPoint x="1010" y="260" as="targetPoint" />
          </mxGeometry>
        </mxCell>
        <mxCell id="mJ2vnAxSnReqpfH-Lu-k-9" value="" style="endArrow=oval;html=1;rounded=0;endFill=1;exitX=1;exitY=0.25;exitDx=0;exitDy=0;entryX=0.025;entryY=0.502;entryDx=0;entryDy=0;entryPerimeter=0;" edge="1" parent="1" source="Lju4dMvoBP7dW9GW1Jxo-9" target="mJ2vnAxSnReqpfH-Lu-k-55">
          <mxGeometry width="50" height="50" relative="1" as="geometry">
            <mxPoint x="664" y="520" as="sourcePoint" />
            <mxPoint x="1010" y="235" as="targetPoint" />
          </mxGeometry>
        </mxCell>
        <mxCell id="mJ2vnAxSnReqpfH-Lu-k-10" value="" style="endArrow=oval;html=1;rounded=0;exitX=1;exitY=0.25;exitDx=0;exitDy=0;endFill=1;entryX=-0.021;entryY=0.62;entryDx=0;entryDy=0;entryPerimeter=0;" edge="1" parent="1" source="Lju4dMvoBP7dW9GW1Jxo-7" target="mJ2vnAxSnReqpfH-Lu-k-43">
          <mxGeometry width="50" height="50" relative="1" as="geometry">
            <mxPoint x="930" y="627.5" as="sourcePoint" />
            <mxPoint x="960" y="662.5" as="targetPoint" />
          </mxGeometry>
        </mxCell>
        <mxCell id="mJ2vnAxSnReqpfH-Lu-k-11" value="" style="endArrow=oval;html=1;rounded=0;endFill=0;exitX=1;exitY=0.75;exitDx=0;exitDy=0;entryX=-0.019;entryY=0.669;entryDx=0;entryDy=0;entryPerimeter=0;" edge="1" parent="1" source="Lju4dMvoBP7dW9GW1Jxo-7" target="mJ2vnAxSnReqpfH-Lu-k-44">
          <mxGeometry width="50" height="50" relative="1" as="geometry">
            <mxPoint x="930" y="642.5" as="sourcePoint" />
            <mxPoint x="960" y="692.5" as="targetPoint" />
          </mxGeometry>
        </mxCell>
        <mxCell id="mJ2vnAxSnReqpfH-Lu-k-18" value="tb_generos_mangas" style="rounded=0;whiteSpace=wrap;html=1;" vertex="1" parent="1">
          <mxGeometry x="795" y="425" width="120" height="60" as="geometry" />
        </mxCell>
        <mxCell id="mJ2vnAxSnReqpfH-Lu-k-28" value="" style="endArrow=oval;html=1;rounded=0;endFill=1;exitX=1;exitY=0.25;exitDx=0;exitDy=0;entryX=0.031;entryY=0.541;entryDx=0;entryDy=0;entryPerimeter=0;" edge="1" parent="1" source="mJ2vnAxSnReqpfH-Lu-k-18" target="mJ2vnAxSnReqpfH-Lu-k-57">
          <mxGeometry width="50" height="50" relative="1" as="geometry">
            <mxPoint x="890" y="450" as="sourcePoint" />
            <mxPoint x="950" y="440" as="targetPoint" />
          </mxGeometry>
        </mxCell>
        <mxCell id="mJ2vnAxSnReqpfH-Lu-k-29" value="" style="endArrow=oval;html=1;rounded=0;endFill=1;exitX=1;exitY=0.5;exitDx=0;exitDy=0;entryX=-0.011;entryY=0.569;entryDx=0;entryDy=0;entryPerimeter=0;" edge="1" parent="1" source="mJ2vnAxSnReqpfH-Lu-k-18" target="mJ2vnAxSnReqpfH-Lu-k-58">
          <mxGeometry width="50" height="50" relative="1" as="geometry">
            <mxPoint x="920" y="455" as="sourcePoint" />
            <mxPoint x="950" y="460" as="targetPoint" />
          </mxGeometry>
        </mxCell>
        <mxCell id="mJ2vnAxSnReqpfH-Lu-k-30" value="cod_cliente" style="text;html=1;align=center;verticalAlign=middle;resizable=0;points=[];autosize=1;strokeColor=none;fillColor=none;" vertex="1" parent="1">
          <mxGeometry x="370" y="315" width="80" height="30" as="geometry" />
        </mxCell>
        <mxCell id="mJ2vnAxSnReqpfH-Lu-k-31" value="email" style="text;html=1;align=center;verticalAlign=middle;resizable=0;points=[];autosize=1;strokeColor=none;fillColor=none;" vertex="1" parent="1">
          <mxGeometry x="370" y="335" width="50" height="30" as="geometry" />
        </mxCell>
        <mxCell id="mJ2vnAxSnReqpfH-Lu-k-32" value="senha" style="text;html=1;align=center;verticalAlign=middle;resizable=0;points=[];autosize=1;strokeColor=none;fillColor=none;" vertex="1" parent="1">
          <mxGeometry x="365" y="355" width="60" height="30" as="geometry" />
        </mxCell>
        <mxCell id="mJ2vnAxSnReqpfH-Lu-k-33" value="telefone" style="text;html=1;align=center;verticalAlign=middle;resizable=0;points=[];autosize=1;strokeColor=none;fillColor=none;" vertex="1" parent="1">
          <mxGeometry x="360" y="375" width="70" height="30" as="geometry" />
        </mxCell>
        <mxCell id="mJ2vnAxSnReqpfH-Lu-k-34" value="dt_nasc" style="text;html=1;align=center;verticalAlign=middle;resizable=0;points=[];autosize=1;strokeColor=none;fillColor=none;" vertex="1" parent="1">
          <mxGeometry x="360" y="390" width="70" height="30" as="geometry" />
        </mxCell>
        <mxCell id="mJ2vnAxSnReqpfH-Lu-k-35" value="nome_cliente" style="text;html=1;align=center;verticalAlign=middle;resizable=0;points=[];autosize=1;strokeColor=none;fillColor=none;" vertex="1" parent="1">
          <mxGeometry x="350" y="405" width="90" height="30" as="geometry" />
        </mxCell>
        <mxCell id="mJ2vnAxSnReqpfH-Lu-k-37" value="cod_pedido" style="text;html=1;align=center;verticalAlign=middle;resizable=0;points=[];autosize=1;strokeColor=none;fillColor=none;" vertex="1" parent="1">
          <mxGeometry x="350" y="523" width="90" height="30" as="geometry" />
        </mxCell>
        <mxCell id="mJ2vnAxSnReqpfH-Lu-k-38" value="dt" style="text;html=1;align=center;verticalAlign=middle;resizable=0;points=[];autosize=1;strokeColor=none;fillColor=none;" vertex="1" parent="1">
          <mxGeometry x="350" y="540" width="30" height="30" as="geometry" />
        </mxCell>
        <mxCell id="mJ2vnAxSnReqpfH-Lu-k-39" value="cod_cliente" style="text;html=1;align=center;verticalAlign=middle;resizable=0;points=[];autosize=1;strokeColor=none;fillColor=none;" vertex="1" parent="1">
          <mxGeometry x="345" y="555" width="80" height="30" as="geometry" />
        </mxCell>
        <mxCell id="mJ2vnAxSnReqpfH-Lu-k-41" value="cod_pedido" style="text;html=1;align=center;verticalAlign=middle;resizable=0;points=[];autosize=1;strokeColor=none;fillColor=none;" vertex="1" parent="1">
          <mxGeometry x="535" y="660" width="90" height="30" as="geometry" />
        </mxCell>
        <mxCell id="mJ2vnAxSnReqpfH-Lu-k-42" value="cod_manga" style="text;html=1;align=center;verticalAlign=middle;resizable=0;points=[];autosize=1;strokeColor=none;fillColor=none;" vertex="1" parent="1">
          <mxGeometry x="535" y="675" width="90" height="30" as="geometry" />
        </mxCell>
        <mxCell id="mJ2vnAxSnReqpfH-Lu-k-43" value="cod_editora" style="text;html=1;align=center;verticalAlign=middle;resizable=0;points=[];autosize=1;strokeColor=none;fillColor=none;" vertex="1" parent="1">
          <mxGeometry x="940" y="640" width="90" height="30" as="geometry" />
        </mxCell>
        <mxCell id="mJ2vnAxSnReqpfH-Lu-k-44" value="nome_editora" style="text;html=1;align=center;verticalAlign=middle;resizable=0;points=[];autosize=1;strokeColor=none;fillColor=none;" vertex="1" parent="1">
          <mxGeometry x="935" y="670" width="100" height="30" as="geometry" />
        </mxCell>
        <mxCell id="mJ2vnAxSnReqpfH-Lu-k-45" value="cod_manga" style="text;html=1;align=center;verticalAlign=middle;resizable=0;points=[];autosize=1;strokeColor=none;fillColor=none;" vertex="1" parent="1">
          <mxGeometry x="690" y="455" width="90" height="30" as="geometry" />
        </mxCell>
        <mxCell id="mJ2vnAxSnReqpfH-Lu-k-46" value="&lt;div&gt;nome_manga&lt;/div&gt;" style="text;html=1;align=center;verticalAlign=middle;resizable=0;points=[];autosize=1;strokeColor=none;fillColor=none;" vertex="1" parent="1">
          <mxGeometry x="695" y="478" width="100" height="30" as="geometry" />
        </mxCell>
        <mxCell id="mJ2vnAxSnReqpfH-Lu-k-47" value="idade_minima" style="text;html=1;align=center;verticalAlign=middle;resizable=0;points=[];autosize=1;strokeColor=none;fillColor=none;" vertex="1" parent="1">
          <mxGeometry x="705" y="493" width="100" height="30" as="geometry" />
        </mxCell>
        <mxCell id="mJ2vnAxSnReqpfH-Lu-k-48" value="qntd_estoque" style="text;html=1;align=center;verticalAlign=middle;resizable=0;points=[];autosize=1;strokeColor=none;fillColor=none;" vertex="1" parent="1">
          <mxGeometry x="710" y="550" width="100" height="30" as="geometry" />
        </mxCell>
        <mxCell id="mJ2vnAxSnReqpfH-Lu-k-50" value="cod_manga" style="text;html=1;align=center;verticalAlign=middle;resizable=0;points=[];autosize=1;strokeColor=none;fillColor=none;" vertex="1" parent="1">
          <mxGeometry x="690" y="335" width="90" height="30" as="geometry" />
        </mxCell>
        <mxCell id="mJ2vnAxSnReqpfH-Lu-k-51" value="cod_autor" style="text;html=1;align=center;verticalAlign=middle;resizable=0;points=[];autosize=1;strokeColor=none;fillColor=none;" vertex="1" parent="1">
          <mxGeometry x="690" y="370" width="80" height="30" as="geometry" />
        </mxCell>
        <mxCell id="mJ2vnAxSnReqpfH-Lu-k-53" value="cod_autor" style="text;html=1;align=center;verticalAlign=middle;resizable=0;points=[];autosize=1;strokeColor=none;fillColor=none;" vertex="1" parent="1">
          <mxGeometry x="665" y="210" width="80" height="30" as="geometry" />
        </mxCell>
        <mxCell id="mJ2vnAxSnReqpfH-Lu-k-54" value="nome_autor" style="text;html=1;align=center;verticalAlign=middle;resizable=0;points=[];autosize=1;strokeColor=none;fillColor=none;" vertex="1" parent="1">
          <mxGeometry x="665" y="235" width="90" height="30" as="geometry" />
        </mxCell>
        <mxCell id="mJ2vnAxSnReqpfH-Lu-k-55" value="cod_genero" style="text;html=1;align=center;verticalAlign=middle;resizable=0;points=[];autosize=1;strokeColor=none;fillColor=none;" vertex="1" parent="1">
          <mxGeometry x="930" y="205" width="90" height="30" as="geometry" />
        </mxCell>
        <mxCell id="mJ2vnAxSnReqpfH-Lu-k-56" value="nome_genero" style="text;html=1;align=center;verticalAlign=middle;resizable=0;points=[];autosize=1;strokeColor=none;fillColor=none;" vertex="1" parent="1">
          <mxGeometry x="930" y="235" width="100" height="30" as="geometry" />
        </mxCell>
        <mxCell id="mJ2vnAxSnReqpfH-Lu-k-57" value="cod_genero" style="text;html=1;align=center;verticalAlign=middle;resizable=0;points=[];autosize=1;strokeColor=none;fillColor=none;" vertex="1" parent="1">
          <mxGeometry x="950" y="430" width="90" height="30" as="geometry" />
        </mxCell>
        <mxCell id="mJ2vnAxSnReqpfH-Lu-k-58" value="cod_manga" style="text;html=1;align=center;verticalAlign=middle;resizable=0;points=[];autosize=1;strokeColor=none;fillColor=none;" vertex="1" parent="1">
          <mxGeometry x="950" y="460" width="90" height="30" as="geometry" />
        </mxCell>
        <mxCell id="mJ2vnAxSnReqpfH-Lu-k-59" value="" style="endArrow=oval;html=1;rounded=0;exitX=1;exitY=1;exitDx=0;exitDy=0;endFill=0;entryX=-0.078;entryY=0.414;entryDx=0;entryDy=0;entryPerimeter=0;" edge="1" parent="1" source="Lju4dMvoBP7dW9GW1Jxo-1" target="mJ2vnAxSnReqpfH-Lu-k-61">
          <mxGeometry width="50" height="50" relative="1" as="geometry">
            <mxPoint x="330" y="430" as="sourcePoint" />
            <mxPoint x="350" y="440" as="targetPoint" />
          </mxGeometry>
        </mxCell>
        <mxCell id="mJ2vnAxSnReqpfH-Lu-k-60" value="" style="endArrow=oval;html=1;rounded=0;exitX=0.75;exitY=1;exitDx=0;exitDy=0;endFill=0;entryX=-0.056;entryY=0.588;entryDx=0;entryDy=0;entryPerimeter=0;" edge="1" parent="1" source="Lju4dMvoBP7dW9GW1Jxo-1" target="mJ2vnAxSnReqpfH-Lu-k-62">
          <mxGeometry width="50" height="50" relative="1" as="geometry">
            <mxPoint x="340" y="440" as="sourcePoint" />
            <mxPoint x="350" y="460" as="targetPoint" />
          </mxGeometry>
        </mxCell>
        <mxCell id="mJ2vnAxSnReqpfH-Lu-k-61" value="tipo" style="text;html=1;align=center;verticalAlign=middle;resizable=0;points=[];autosize=1;strokeColor=none;fillColor=none;" vertex="1" parent="1">
          <mxGeometry x="350" y="430" width="40" height="30" as="geometry" />
        </mxCell>
        <mxCell id="mJ2vnAxSnReqpfH-Lu-k-62" value="ativo" style="text;html=1;align=center;verticalAlign=middle;resizable=0;points=[];autosize=1;strokeColor=none;fillColor=none;" vertex="1" parent="1">
          <mxGeometry x="350" y="450" width="50" height="30" as="geometry" />
        </mxCell>
        <mxCell id="mJ2vnAxSnReqpfH-Lu-k-63" value="" style="endArrow=oval;html=1;rounded=0;exitX=1;exitY=0;exitDx=0;exitDy=0;endFill=1;entryX=0.001;entryY=0.62;entryDx=0;entryDy=0;entryPerimeter=0;" edge="1" parent="1" source="Lju4dMvoBP7dW9GW1Jxo-3" target="mJ2vnAxSnReqpfH-Lu-k-64">
          <mxGeometry width="50" height="50" relative="1" as="geometry">
            <mxPoint x="584" y="440" as="sourcePoint" />
            <mxPoint x="530" y="630" as="targetPoint" />
          </mxGeometry>
        </mxCell>
        <mxCell id="mJ2vnAxSnReqpfH-Lu-k-64" value="cod_pedido_manga" style="text;html=1;align=center;verticalAlign=middle;resizable=0;points=[];autosize=1;strokeColor=none;fillColor=none;" vertex="1" parent="1">
          <mxGeometry x="520" y="640" width="130" height="30" as="geometry" />
        </mxCell>
        <mxCell id="mJ2vnAxSnReqpfH-Lu-k-65" value="" style="endArrow=oval;html=1;rounded=0;exitX=1;exitY=0.75;exitDx=0;exitDy=0;endFill=0;entryX=-0.004;entryY=0.522;entryDx=0;entryDy=0;entryPerimeter=0;" edge="1" parent="1" source="Lju4dMvoBP7dW9GW1Jxo-3" target="mJ2vnAxSnReqpfH-Lu-k-66">
          <mxGeometry width="50" height="50" relative="1" as="geometry">
            <mxPoint x="500" y="700" as="sourcePoint" />
            <mxPoint x="540" y="710" as="targetPoint" />
            <Array as="points" />
          </mxGeometry>
        </mxCell>
        <mxCell id="mJ2vnAxSnReqpfH-Lu-k-66" value="qntd" style="text;html=1;align=center;verticalAlign=middle;resizable=0;points=[];autosize=1;strokeColor=none;fillColor=none;" vertex="1" parent="1">
          <mxGeometry x="530" y="690" width="50" height="30" as="geometry" />
        </mxCell>
        <mxCell id="mJ2vnAxSnReqpfH-Lu-k-68" value="" style="endArrow=oval;html=1;rounded=0;exitX=1;exitY=1;exitDx=0;exitDy=0;endFill=0;entryX=0.013;entryY=0.5;entryDx=0;entryDy=0;entryPerimeter=0;" edge="1" parent="1" source="Lju4dMvoBP7dW9GW1Jxo-3" target="mJ2vnAxSnReqpfH-Lu-k-69">
          <mxGeometry width="50" height="50" relative="1" as="geometry">
            <mxPoint x="500" y="700" as="sourcePoint" />
            <mxPoint x="520" y="740" as="targetPoint" />
            <Array as="points" />
          </mxGeometry>
        </mxCell>
        <mxCell id="mJ2vnAxSnReqpfH-Lu-k-69" value="valor" style="text;html=1;align=center;verticalAlign=middle;resizable=0;points=[];autosize=1;strokeColor=none;fillColor=none;" vertex="1" parent="1">
          <mxGeometry x="535" y="705" width="50" height="30" as="geometry" />
        </mxCell>
        <mxCell id="mJ2vnAxSnReqpfH-Lu-k-70" value="" style="endArrow=oval;html=1;rounded=0;exitX=0;exitY=0.25;exitDx=0;exitDy=0;endFill=0;entryX=1.048;entryY=0.6;entryDx=0;entryDy=0;entryPerimeter=0;" edge="1" parent="1" source="Lju4dMvoBP7dW9GW1Jxo-4" target="mJ2vnAxSnReqpfH-Lu-k-71">
          <mxGeometry width="50" height="50" relative="1" as="geometry">
            <mxPoint x="704" y="545" as="sourcePoint" />
            <mxPoint x="540" y="490" as="targetPoint" />
          </mxGeometry>
        </mxCell>
        <mxCell id="mJ2vnAxSnReqpfH-Lu-k-71" value="valor" style="text;html=1;align=center;verticalAlign=middle;resizable=0;points=[];autosize=1;strokeColor=none;fillColor=none;" vertex="1" parent="1">
          <mxGeometry x="460" y="485" width="50" height="30" as="geometry" />
        </mxCell>
        <mxCell id="mJ2vnAxSnReqpfH-Lu-k-72" value="ativo" style="text;html=1;align=center;verticalAlign=middle;resizable=0;points=[];autosize=1;strokeColor=none;fillColor=none;" vertex="1" parent="1">
          <mxGeometry x="460" y="510" width="50" height="30" as="geometry" />
        </mxCell>
        <mxCell id="mJ2vnAxSnReqpfH-Lu-k-73" value="" style="endArrow=oval;html=1;rounded=0;exitX=0;exitY=0.5;exitDx=0;exitDy=0;endFill=0;entryX=1.056;entryY=0.52;entryDx=0;entryDy=0;entryPerimeter=0;" edge="1" parent="1" source="Lju4dMvoBP7dW9GW1Jxo-4" target="mJ2vnAxSnReqpfH-Lu-k-72">
          <mxGeometry width="50" height="50" relative="1" as="geometry">
            <mxPoint x="714" y="555" as="sourcePoint" />
            <mxPoint x="729" y="536" as="targetPoint" />
          </mxGeometry>
        </mxCell>
        <mxCell id="zAs0wkgtQznpPYsRpgQt-1" value="tb_cidades" style="rounded=0;whiteSpace=wrap;html=1;" vertex="1" parent="1">
          <mxGeometry x="184" y="240" width="120" height="60" as="geometry" />
        </mxCell>
        <mxCell id="zAs0wkgtQznpPYsRpgQt-2" value="" style="endArrow=ERzeroToMany;html=1;rounded=0;exitX=0.5;exitY=1;exitDx=0;exitDy=0;endFill=0;startArrow=ERmandOne;startFill=0;entryX=0.5;entryY=0;entryDx=0;entryDy=0;" edge="1" parent="1" source="zAs0wkgtQznpPYsRpgQt-1" target="Lju4dMvoBP7dW9GW1Jxo-1">
          <mxGeometry width="50" height="50" relative="1" as="geometry">
            <mxPoint x="260" y="375" as="sourcePoint" />
            <mxPoint x="340" y="280" as="targetPoint" />
          </mxGeometry>
        </mxCell>
        <mxCell id="zAs0wkgtQznpPYsRpgQt-4" value="" style="endArrow=none;html=1;rounded=0;entryX=1;entryY=0.25;entryDx=0;entryDy=0;startArrow=oval;startFill=1;exitX=-0.014;exitY=0.567;exitDx=0;exitDy=0;exitPerimeter=0;" edge="1" parent="1" source="zAs0wkgtQznpPYsRpgQt-7" target="zAs0wkgtQznpPYsRpgQt-1">
          <mxGeometry width="50" height="50" relative="1" as="geometry">
            <mxPoint x="334" y="240" as="sourcePoint" />
            <mxPoint x="374" y="450" as="targetPoint" />
          </mxGeometry>
        </mxCell>
        <mxCell id="zAs0wkgtQznpPYsRpgQt-5" value="" style="endArrow=none;html=1;rounded=0;entryX=1;entryY=0.5;entryDx=0;entryDy=0;startArrow=oval;startFill=0;exitX=0.031;exitY=0.483;exitDx=0;exitDy=0;exitPerimeter=0;" edge="1" parent="1" source="zAs0wkgtQznpPYsRpgQt-8" target="zAs0wkgtQznpPYsRpgQt-1">
          <mxGeometry width="50" height="50" relative="1" as="geometry">
            <mxPoint x="334" y="260" as="sourcePoint" />
            <mxPoint x="314" y="265" as="targetPoint" />
          </mxGeometry>
        </mxCell>
        <mxCell id="zAs0wkgtQznpPYsRpgQt-6" value="" style="endArrow=none;html=1;rounded=0;entryX=1;entryY=0.75;entryDx=0;entryDy=0;startArrow=oval;startFill=0;exitX=-0.014;exitY=0.483;exitDx=0;exitDy=0;exitPerimeter=0;" edge="1" parent="1" source="zAs0wkgtQznpPYsRpgQt-9" target="zAs0wkgtQznpPYsRpgQt-1">
          <mxGeometry width="50" height="50" relative="1" as="geometry">
            <mxPoint x="334" y="280" as="sourcePoint" />
            <mxPoint x="324" y="275" as="targetPoint" />
          </mxGeometry>
        </mxCell>
        <mxCell id="zAs0wkgtQznpPYsRpgQt-7" value="cod_cid" style="text;html=1;align=center;verticalAlign=middle;resizable=0;points=[];autosize=1;strokeColor=none;fillColor=none;" vertex="1" parent="1">
          <mxGeometry x="334" y="230" width="60" height="30" as="geometry" />
        </mxCell>
        <mxCell id="zAs0wkgtQznpPYsRpgQt-8" value="nome_cid" style="text;html=1;align=center;verticalAlign=middle;resizable=0;points=[];autosize=1;strokeColor=none;fillColor=none;" vertex="1" parent="1">
          <mxGeometry x="334" y="255" width="80" height="30" as="geometry" />
        </mxCell>
        <mxCell id="zAs0wkgtQznpPYsRpgQt-9" value="estado_cid" style="text;html=1;align=center;verticalAlign=middle;resizable=0;points=[];autosize=1;strokeColor=none;fillColor=none;" vertex="1" parent="1">
          <mxGeometry x="334" y="280" width="80" height="30" as="geometry" />
        </mxCell>
        <mxCell id="zAs0wkgtQznpPYsRpgQt-10" value="" style="endArrow=oval;html=1;rounded=0;exitX=0;exitY=0.75;exitDx=0;exitDy=0;endFill=0;entryX=1.028;entryY=0.511;entryDx=0;entryDy=0;entryPerimeter=0;" edge="1" parent="1" source="Lju4dMvoBP7dW9GW1Jxo-1" target="zAs0wkgtQznpPYsRpgQt-11">
          <mxGeometry width="50" height="50" relative="1" as="geometry">
            <mxPoint x="330" y="445" as="sourcePoint" />
            <mxPoint x="170" y="410" as="targetPoint" />
          </mxGeometry>
        </mxCell>
        <mxCell id="zAs0wkgtQznpPYsRpgQt-11" value="cod_cid" style="text;html=1;align=center;verticalAlign=middle;resizable=0;points=[];autosize=1;strokeColor=none;fillColor=none;" vertex="1" parent="1">
          <mxGeometry x="100" y="400" width="60" height="30" as="geometry" />
        </mxCell>
        <mxCell id="4SPzyo6tYOP9KAXTzvWt-1" value="" style="endArrow=oval;html=1;rounded=0;exitX=1;exitY=1;exitDx=0;exitDy=0;endFill=0;entryX=-0.01;entryY=0.476;entryDx=0;entryDy=0;entryPerimeter=0;" edge="1" parent="1" source="Lju4dMvoBP7dW9GW1Jxo-4" target="4SPzyo6tYOP9KAXTzvWt-2">
          <mxGeometry width="50" height="50" relative="1" as="geometry">
            <mxPoint x="470" y="530" as="sourcePoint" />
            <mxPoint x="700" y="610" as="targetPoint" />
          </mxGeometry>
        </mxCell>
        <mxCell id="4SPzyo6tYOP9KAXTzvWt-2" value="cod_editora" style="text;html=1;align=center;verticalAlign=middle;resizable=0;points=[];autosize=1;strokeColor=none;fillColor=none;" vertex="1" parent="1">
          <mxGeometry x="705" y="565" width="90" height="30" as="geometry" />
        </mxCell>
        <mxCell id="xc7VdZ3tkvJgeySzIFnL-2" value="" style="endArrow=oval;html=1;rounded=0;endFill=0;entryX=0.009;entryY=0.259;entryDx=0;entryDy=0;entryPerimeter=0;exitX=0.75;exitY=1;exitDx=0;exitDy=0;" edge="1" parent="1" source="Lju4dMvoBP7dW9GW1Jxo-4" target="xc7VdZ3tkvJgeySzIFnL-3">
          <mxGeometry width="50" height="50" relative="1" as="geometry">
            <mxPoint x="660" y="660" as="sourcePoint" />
            <mxPoint x="690" y="620" as="targetPoint" />
          </mxGeometry>
        </mxCell>
        <mxCell id="xc7VdZ3tkvJgeySzIFnL-3" value="resumo_manga&lt;br&gt;" style="text;html=1;align=center;verticalAlign=middle;resizable=0;points=[];autosize=1;strokeColor=none;fillColor=none;" vertex="1" parent="1">
          <mxGeometry x="690" y="585" width="110" height="30" as="geometry" />
        </mxCell>
        <mxCell id="-QC7rKy0TVoZhB2m4lst-2" value="" style="endArrow=oval;html=1;rounded=0;exitX=0;exitY=0.75;exitDx=0;exitDy=0;endFill=0;" edge="1" parent="1" source="Lju4dMvoBP7dW9GW1Jxo-4">
          <mxGeometry width="50" height="50" relative="1" as="geometry">
            <mxPoint x="584" y="560" as="sourcePoint" />
            <mxPoint x="520" y="550" as="targetPoint" />
          </mxGeometry>
        </mxCell>
        <mxCell id="-QC7rKy0TVoZhB2m4lst-3" value="imagem" style="text;html=1;align=center;verticalAlign=middle;resizable=0;points=[];autosize=1;strokeColor=none;fillColor=none;" vertex="1" parent="1">
          <mxGeometry x="450" y="535" width="70" height="30" as="geometry" />
        </mxCell>
        <mxCell id="jqfN26t4NeFlnOKiw95Y-1" value="cpf&lt;br&gt;" style="text;html=1;align=center;verticalAlign=middle;resizable=0;points=[];autosize=1;strokeColor=none;fillColor=none;" vertex="1" parent="1">
          <mxGeometry x="120" y="365" width="40" height="30" as="geometry" />
        </mxCell>
        <mxCell id="jqfN26t4NeFlnOKiw95Y-2" value="" style="endArrow=oval;html=1;rounded=0;entryX=1.06;entryY=0.602;entryDx=0;entryDy=0;entryPerimeter=0;exitX=0;exitY=0.25;exitDx=0;exitDy=0;startArrow=none;startFill=0;endFill=0;" edge="1" parent="1" source="Lju4dMvoBP7dW9GW1Jxo-1" target="jqfN26t4NeFlnOKiw95Y-1">
          <mxGeometry width="50" height="50" relative="1" as="geometry">
            <mxPoint x="460" y="490" as="sourcePoint" />
            <mxPoint x="510" y="440" as="targetPoint" />
          </mxGeometry>
        </mxCell>
        <mxCell id="jqfN26t4NeFlnOKiw95Y-3" value="carrinho" style="text;html=1;align=center;verticalAlign=middle;resizable=0;points=[];autosize=1;strokeColor=none;fillColor=none;" vertex="1" parent="1">
          <mxGeometry x="390" y="718" width="70" height="30" as="geometry" />
        </mxCell>
        <mxCell id="YcdpeFZoMpd2VAmbIIir-1" value="" style="endArrow=none;html=1;rounded=0;entryX=1;entryY=0.75;entryDx=0;entryDy=0;endFill=0;startArrow=oval;startFill=0;exitX=-0.012;exitY=0.48;exitDx=0;exitDy=0;exitPerimeter=0;" edge="1" parent="1" source="YcdpeFZoMpd2VAmbIIir-2" target="Lju4dMvoBP7dW9GW1Jxo-2">
          <mxGeometry width="50" height="50" relative="1" as="geometry">
            <mxPoint x="540" y="760" as="sourcePoint" />
            <mxPoint x="440" y="670" as="targetPoint" />
          </mxGeometry>
        </mxCell>
        <mxCell id="YcdpeFZoMpd2VAmbIIir-2" value="tipo_pagamento" style="text;html=1;align=center;verticalAlign=middle;resizable=0;points=[];autosize=1;strokeColor=none;fillColor=none;" vertex="1" parent="1">
          <mxGeometry x="340" y="570" width="110" height="30" as="geometry" />
        </mxCell>
        <mxCell id="aaw9mbpJkVddwCQZw1tT-1" value="movimento" style="text;html=1;align=center;verticalAlign=middle;resizable=0;points=[];autosize=1;strokeColor=none;fillColor=none;" vertex="1" parent="1">
          <mxGeometry x="340" y="585" width="80" height="30" as="geometry" />
        </mxCell>
        <mxCell id="aaw9mbpJkVddwCQZw1tT-2" value="" style="endArrow=none;html=1;rounded=0;endFill=0;startArrow=oval;startFill=0;exitX=-0.005;exitY=0.54;exitDx=0;exitDy=0;exitPerimeter=0;entryX=1;entryY=1;entryDx=0;entryDy=0;" edge="1" parent="1" source="aaw9mbpJkVddwCQZw1tT-1" target="Lju4dMvoBP7dW9GW1Jxo-2">
          <mxGeometry width="50" height="50" relative="1" as="geometry">
            <mxPoint x="349" y="594" as="sourcePoint" />
            <mxPoint x="310" y="600" as="targetPoint" />
          </mxGeometry>
        </mxCell>
      </root>
    </mxGraphModel>
  </diagram>
</mxfile>
